<mxfile host="app.diagrams.net" agent="Mozilla/5.0 (Windows NT 10.0; Win64; x64; rv:133.0) Gecko/20100101 Firefox/133.0" version="25.0.3">
  <diagram id="C5RBs43oDa-KdzZeNtuy" name="Page-1">
    <mxGraphModel grid="1" page="1" gridSize="10" guides="1" tooltips="1" connect="1" arrows="1" fold="1" pageScale="1" pageWidth="827" pageHeight="1169" math="0" shadow="0">
      <root>
        <mxCell id="WIyWlLk6GJQsqaUBKTNV-0" />
        <mxCell id="WIyWlLk6GJQsqaUBKTNV-1" parent="WIyWlLk6GJQsqaUBKTNV-0" />
        <mxCell id="WIyWlLk6GJQsqaUBKTNV-2" value="" style="rounded=0;html=1;jettySize=auto;orthogonalLoop=1;fontSize=11;endArrow=classic;endFill=1;strokeWidth=1;shadow=0;labelBackgroundColor=none;edgeStyle=orthogonalEdgeStyle;" edge="1" parent="WIyWlLk6GJQsqaUBKTNV-1" source="WIyWlLk6GJQsqaUBKTNV-3" target="wmoVBlkNv2RBaDLgsw_t-4">
          <mxGeometry relative="1" as="geometry">
            <mxPoint x="220" y="170" as="targetPoint" />
            <Array as="points">
              <mxPoint x="220" y="145" />
              <mxPoint x="140" y="145" />
            </Array>
          </mxGeometry>
        </mxCell>
        <mxCell id="WIyWlLk6GJQsqaUBKTNV-3" value="Push to Main Branch" style="rounded=1;whiteSpace=wrap;html=1;fontSize=12;glass=0;strokeWidth=1;shadow=0;" vertex="1" parent="WIyWlLk6GJQsqaUBKTNV-1">
          <mxGeometry x="160" y="80" width="120" height="40" as="geometry" />
        </mxCell>
        <mxCell id="WIyWlLk6GJQsqaUBKTNV-11" value="Finish" style="rounded=1;whiteSpace=wrap;html=1;fontSize=12;glass=0;strokeWidth=1;shadow=0;" vertex="1" parent="WIyWlLk6GJQsqaUBKTNV-1">
          <mxGeometry x="200" y="440" width="120" height="40" as="geometry" />
        </mxCell>
        <mxCell id="wmoVBlkNv2RBaDLgsw_t-0" value="Start Workflow" style="shape=hexagon;perimeter=hexagonPerimeter2;whiteSpace=wrap;html=1;fixedSize=1;" vertex="1" parent="WIyWlLk6GJQsqaUBKTNV-1">
          <mxGeometry x="470" y="60" width="90" height="60" as="geometry" />
        </mxCell>
        <mxCell id="wmoVBlkNv2RBaDLgsw_t-1" value="Workflow Job" style="rounded=0;whiteSpace=wrap;html=1;" vertex="1" parent="WIyWlLk6GJQsqaUBKTNV-1">
          <mxGeometry x="590" y="60" width="100" height="50" as="geometry" />
        </mxCell>
        <mxCell id="wmoVBlkNv2RBaDLgsw_t-2" value="Start/End" style="rounded=1;whiteSpace=wrap;html=1;" vertex="1" parent="WIyWlLk6GJQsqaUBKTNV-1">
          <mxGeometry x="540" y="130" width="80" height="40" as="geometry" />
        </mxCell>
        <mxCell id="wmoVBlkNv2RBaDLgsw_t-3" value="Legend" style="swimlane;whiteSpace=wrap;html=1;" vertex="1" parent="WIyWlLk6GJQsqaUBKTNV-1">
          <mxGeometry x="460" y="10" width="250" height="170" as="geometry" />
        </mxCell>
        <mxCell id="wmoVBlkNv2RBaDLgsw_t-7" style="edgeStyle=orthogonalEdgeStyle;rounded=0;orthogonalLoop=1;jettySize=auto;html=1;entryX=0.447;entryY=-0.021;entryDx=0;entryDy=0;entryPerimeter=0;" edge="1" parent="WIyWlLk6GJQsqaUBKTNV-1" source="wmoVBlkNv2RBaDLgsw_t-4" target="wmoVBlkNv2RBaDLgsw_t-8">
          <mxGeometry relative="1" as="geometry">
            <mxPoint x="145" y="270" as="targetPoint" />
          </mxGeometry>
        </mxCell>
        <mxCell id="wmoVBlkNv2RBaDLgsw_t-4" value="Build and test" style="shape=hexagon;perimeter=hexagonPerimeter2;whiteSpace=wrap;html=1;fixedSize=1;" vertex="1" parent="WIyWlLk6GJQsqaUBKTNV-1">
          <mxGeometry x="100" y="170" width="90" height="60" as="geometry" />
        </mxCell>
        <mxCell id="wmoVBlkNv2RBaDLgsw_t-5" value="" style="rounded=0;html=1;jettySize=auto;orthogonalLoop=1;fontSize=11;endArrow=classic;endFill=1;endSize=8;strokeWidth=1;shadow=0;labelBackgroundColor=none;edgeStyle=orthogonalEdgeStyle;entryX=0.559;entryY=0.009;entryDx=0;entryDy=0;entryPerimeter=0;" edge="1" parent="WIyWlLk6GJQsqaUBKTNV-1" target="wmoVBlkNv2RBaDLgsw_t-6">
          <mxGeometry relative="1" as="geometry">
            <mxPoint x="220" y="120" as="sourcePoint" />
            <mxPoint x="280" y="170" as="targetPoint" />
            <Array as="points">
              <mxPoint x="220" y="145" />
              <mxPoint x="360" y="145" />
            </Array>
          </mxGeometry>
        </mxCell>
        <mxCell id="wmoVBlkNv2RBaDLgsw_t-22" style="edgeStyle=orthogonalEdgeStyle;rounded=0;orthogonalLoop=1;jettySize=auto;html=1;entryX=0.5;entryY=0;entryDx=0;entryDy=0;" edge="1" parent="WIyWlLk6GJQsqaUBKTNV-1" source="wmoVBlkNv2RBaDLgsw_t-6" target="wmoVBlkNv2RBaDLgsw_t-21">
          <mxGeometry relative="1" as="geometry">
            <Array as="points">
              <mxPoint x="360" y="230" />
              <mxPoint x="360" y="230" />
            </Array>
          </mxGeometry>
        </mxCell>
        <mxCell id="wmoVBlkNv2RBaDLgsw_t-6" value="Build and Deploy" style="shape=hexagon;perimeter=hexagonPerimeter2;whiteSpace=wrap;html=1;fixedSize=1;" vertex="1" parent="WIyWlLk6GJQsqaUBKTNV-1">
          <mxGeometry x="310" y="170" width="90" height="60" as="geometry" />
        </mxCell>
        <mxCell id="wmoVBlkNv2RBaDLgsw_t-9" style="edgeStyle=orthogonalEdgeStyle;rounded=0;orthogonalLoop=1;jettySize=auto;html=1;entryX=0.5;entryY=0;entryDx=0;entryDy=0;" edge="1" parent="WIyWlLk6GJQsqaUBKTNV-1" source="wmoVBlkNv2RBaDLgsw_t-8" target="wmoVBlkNv2RBaDLgsw_t-10">
          <mxGeometry relative="1" as="geometry">
            <mxPoint x="100" y="330" as="targetPoint" />
            <Array as="points">
              <mxPoint x="150" y="310" />
              <mxPoint x="80" y="310" />
            </Array>
          </mxGeometry>
        </mxCell>
        <mxCell id="wmoVBlkNv2RBaDLgsw_t-13" style="edgeStyle=orthogonalEdgeStyle;rounded=0;orthogonalLoop=1;jettySize=auto;html=1;entryX=0.5;entryY=0;entryDx=0;entryDy=0;" edge="1" parent="WIyWlLk6GJQsqaUBKTNV-1" source="wmoVBlkNv2RBaDLgsw_t-8" target="wmoVBlkNv2RBaDLgsw_t-11">
          <mxGeometry relative="1" as="geometry" />
        </mxCell>
        <mxCell id="wmoVBlkNv2RBaDLgsw_t-8" value="Build" style="rounded=0;whiteSpace=wrap;html=1;" vertex="1" parent="WIyWlLk6GJQsqaUBKTNV-1">
          <mxGeometry x="110" y="250" width="80" height="40" as="geometry" />
        </mxCell>
        <mxCell id="wmoVBlkNv2RBaDLgsw_t-17" style="edgeStyle=orthogonalEdgeStyle;rounded=0;orthogonalLoop=1;jettySize=auto;html=1;entryX=0.5;entryY=0;entryDx=0;entryDy=0;" edge="1" parent="WIyWlLk6GJQsqaUBKTNV-1" source="wmoVBlkNv2RBaDLgsw_t-10" target="WIyWlLk6GJQsqaUBKTNV-11">
          <mxGeometry relative="1" as="geometry">
            <mxPoint x="300" y="420" as="targetPoint" />
            <Array as="points">
              <mxPoint x="80" y="395" />
              <mxPoint x="150" y="395" />
              <mxPoint x="150" y="420" />
              <mxPoint x="260" y="420" />
            </Array>
          </mxGeometry>
        </mxCell>
        <mxCell id="wmoVBlkNv2RBaDLgsw_t-10" value="Unit Test" style="rounded=0;whiteSpace=wrap;html=1;" vertex="1" parent="WIyWlLk6GJQsqaUBKTNV-1">
          <mxGeometry x="50" y="330" width="60" height="40" as="geometry" />
        </mxCell>
        <mxCell id="wmoVBlkNv2RBaDLgsw_t-19" style="edgeStyle=orthogonalEdgeStyle;rounded=0;orthogonalLoop=1;jettySize=auto;html=1;entryX=0.5;entryY=0;entryDx=0;entryDy=0;" edge="1" parent="WIyWlLk6GJQsqaUBKTNV-1" source="wmoVBlkNv2RBaDLgsw_t-11" target="WIyWlLk6GJQsqaUBKTNV-11">
          <mxGeometry relative="1" as="geometry">
            <mxPoint x="150" y="430" as="targetPoint" />
            <Array as="points">
              <mxPoint x="210" y="390" />
              <mxPoint x="150" y="390" />
              <mxPoint x="150" y="420" />
              <mxPoint x="260" y="420" />
            </Array>
          </mxGeometry>
        </mxCell>
        <mxCell id="wmoVBlkNv2RBaDLgsw_t-11" value="Integration Test" style="rounded=0;whiteSpace=wrap;html=1;" vertex="1" parent="WIyWlLk6GJQsqaUBKTNV-1">
          <mxGeometry x="180" y="330" width="60" height="40" as="geometry" />
        </mxCell>
        <mxCell id="wmoVBlkNv2RBaDLgsw_t-24" style="edgeStyle=orthogonalEdgeStyle;rounded=0;orthogonalLoop=1;jettySize=auto;html=1;" edge="1" parent="WIyWlLk6GJQsqaUBKTNV-1" source="wmoVBlkNv2RBaDLgsw_t-21" target="wmoVBlkNv2RBaDLgsw_t-23">
          <mxGeometry relative="1" as="geometry" />
        </mxCell>
        <mxCell id="wmoVBlkNv2RBaDLgsw_t-21" value="Build" style="rounded=0;whiteSpace=wrap;html=1;" vertex="1" parent="WIyWlLk6GJQsqaUBKTNV-1">
          <mxGeometry x="320" y="260" width="80" height="40" as="geometry" />
        </mxCell>
        <mxCell id="wmoVBlkNv2RBaDLgsw_t-25" style="edgeStyle=orthogonalEdgeStyle;rounded=0;orthogonalLoop=1;jettySize=auto;html=1;entryX=0.5;entryY=0;entryDx=0;entryDy=0;" edge="1" parent="WIyWlLk6GJQsqaUBKTNV-1" source="wmoVBlkNv2RBaDLgsw_t-23" target="WIyWlLk6GJQsqaUBKTNV-11">
          <mxGeometry relative="1" as="geometry">
            <mxPoint x="360" y="420" as="targetPoint" />
            <Array as="points">
              <mxPoint x="360" y="420" />
              <mxPoint x="260" y="420" />
            </Array>
          </mxGeometry>
        </mxCell>
        <mxCell id="wmoVBlkNv2RBaDLgsw_t-23" value="Deploy" style="rounded=0;whiteSpace=wrap;html=1;" vertex="1" parent="WIyWlLk6GJQsqaUBKTNV-1">
          <mxGeometry x="320" y="330" width="80" height="40" as="geometry" />
        </mxCell>
        <mxCell id="wmoVBlkNv2RBaDLgsw_t-27" style="edgeStyle=orthogonalEdgeStyle;rounded=0;orthogonalLoop=1;jettySize=auto;html=1;" edge="1" parent="WIyWlLk6GJQsqaUBKTNV-1" source="wmoVBlkNv2RBaDLgsw_t-26">
          <mxGeometry relative="1" as="geometry">
            <mxPoint x="640" y="290" as="targetPoint" />
          </mxGeometry>
        </mxCell>
        <mxCell id="wmoVBlkNv2RBaDLgsw_t-26" value="New Tag Pushed to Main Branch" style="rounded=1;whiteSpace=wrap;html=1;fontSize=12;glass=0;strokeWidth=1;shadow=0;" vertex="1" parent="WIyWlLk6GJQsqaUBKTNV-1">
          <mxGeometry x="580" y="210" width="120" height="40" as="geometry" />
        </mxCell>
        <mxCell id="wmoVBlkNv2RBaDLgsw_t-29" style="edgeStyle=orthogonalEdgeStyle;rounded=0;orthogonalLoop=1;jettySize=auto;html=1;entryX=0.5;entryY=0;entryDx=0;entryDy=0;" edge="1" parent="WIyWlLk6GJQsqaUBKTNV-1" source="wmoVBlkNv2RBaDLgsw_t-28" target="wmoVBlkNv2RBaDLgsw_t-30">
          <mxGeometry relative="1" as="geometry">
            <mxPoint x="550" y="380" as="targetPoint" />
          </mxGeometry>
        </mxCell>
        <mxCell id="wmoVBlkNv2RBaDLgsw_t-28" value="Build, Test, Release" style="shape=hexagon;perimeter=hexagonPerimeter2;whiteSpace=wrap;html=1;fixedSize=1;" vertex="1" parent="WIyWlLk6GJQsqaUBKTNV-1">
          <mxGeometry x="595" y="290" width="90" height="60" as="geometry" />
        </mxCell>
        <mxCell id="wmoVBlkNv2RBaDLgsw_t-32" style="edgeStyle=orthogonalEdgeStyle;rounded=0;orthogonalLoop=1;jettySize=auto;html=1;entryX=0;entryY=0.5;entryDx=0;entryDy=0;" edge="1" parent="WIyWlLk6GJQsqaUBKTNV-1" source="wmoVBlkNv2RBaDLgsw_t-30" target="wmoVBlkNv2RBaDLgsw_t-31">
          <mxGeometry relative="1" as="geometry" />
        </mxCell>
        <mxCell id="wmoVBlkNv2RBaDLgsw_t-30" value="Build" style="rounded=0;whiteSpace=wrap;html=1;" vertex="1" parent="WIyWlLk6GJQsqaUBKTNV-1">
          <mxGeometry x="510" y="380" width="50" height="40" as="geometry" />
        </mxCell>
        <mxCell id="wmoVBlkNv2RBaDLgsw_t-34" style="edgeStyle=orthogonalEdgeStyle;rounded=0;orthogonalLoop=1;jettySize=auto;html=1;entryX=0;entryY=0.5;entryDx=0;entryDy=0;" edge="1" parent="WIyWlLk6GJQsqaUBKTNV-1" source="wmoVBlkNv2RBaDLgsw_t-31" target="wmoVBlkNv2RBaDLgsw_t-33">
          <mxGeometry relative="1" as="geometry" />
        </mxCell>
        <mxCell id="wmoVBlkNv2RBaDLgsw_t-31" value="Test" style="rounded=0;whiteSpace=wrap;html=1;" vertex="1" parent="WIyWlLk6GJQsqaUBKTNV-1">
          <mxGeometry x="620" y="380" width="50" height="40" as="geometry" />
        </mxCell>
        <mxCell id="wmoVBlkNv2RBaDLgsw_t-36" style="edgeStyle=orthogonalEdgeStyle;rounded=0;orthogonalLoop=1;jettySize=auto;html=1;entryX=1;entryY=0.5;entryDx=0;entryDy=0;" edge="1" parent="WIyWlLk6GJQsqaUBKTNV-1" source="wmoVBlkNv2RBaDLgsw_t-33" target="wmoVBlkNv2RBaDLgsw_t-35">
          <mxGeometry relative="1" as="geometry">
            <Array as="points">
              <mxPoint x="735" y="460" />
            </Array>
          </mxGeometry>
        </mxCell>
        <mxCell id="wmoVBlkNv2RBaDLgsw_t-33" value="Release" style="rounded=0;whiteSpace=wrap;html=1;" vertex="1" parent="WIyWlLk6GJQsqaUBKTNV-1">
          <mxGeometry x="710" y="380" width="50" height="40" as="geometry" />
        </mxCell>
        <mxCell id="wmoVBlkNv2RBaDLgsw_t-35" value="Finish" style="rounded=1;whiteSpace=wrap;html=1;fontSize=12;glass=0;strokeWidth=1;shadow=0;" vertex="1" parent="WIyWlLk6GJQsqaUBKTNV-1">
          <mxGeometry x="612.5" y="440" width="65" height="40" as="geometry" />
        </mxCell>
      </root>
    </mxGraphModel>
  </diagram>
</mxfile>
